<?xml version="1.0" encoding="UTF-8" standalone="no"?><!DOCTYPE svg PUBLIC "-//W3C//DTD SVG 1.1//EN" "http://www.w3.org/Graphics/SVG/1.1/DTD/svg11.dtd"><svg width="100%" height="100%" viewBox="0 0 1200 601" version="1.1" xmlns="http://www.w3.org/2000/svg" xmlns:xlink="http://www.w3.org/1999/xlink" xml:space="preserve" xmlns:serif="http://www.serif.com/" style="fill-rule:evenodd;clip-rule:evenodd;stroke-linejoin:round;stroke-miterlimit:1.41421;"><rect id="Artboard1" x="0" y="0" width="1200" height="600.88" style="fill:none;"/><clipPath id="_clip1"><rect x="0" y="0" width="1200" height="600.88"/></clipPath><g clip-path="url(#_clip1)"><g><g><path d="M337.695,600l862.305,0l-862.305,0Z" style="fill:#8cb79f;"/><path d="M1200,0.001l0,365.871l-3.33,-0.069c-47.857,0 -86.653,38.796 -86.653,86.652c0,3.156 0.173,6.271 0.502,9.339c-12.362,1.045 -23.516,6.3 -32.034,14.333c-13.005,-13.177 -31.066,-21.351 -51.042,-21.351c-28.839,0 -53.687,17.03 -65.077,41.574c-3.074,-0.64 -6.258,-0.981 -9.521,-0.981c-19.594,0 -36.343,12.138 -43.169,29.299c-4.146,-2.207 -8.876,-3.464 -13.901,-3.464c-5.43,0 -10.515,1.469 -14.891,4.02c-6.103,-14.257 -20.256,-24.247 -36.746,-24.247c-1.334,0 -2.652,0.068 -3.952,0.196c-3.339,-6.614 -8.225,-12.309 -14.187,-16.612l0,-17.01c-7.787,6.892 -18.022,11.077 -29.228,11.077c-8.725,0 -16.863,-2.538 -23.714,-6.915l0,12.259c-7.812,5.382 -13.881,13.11 -17.178,22.175c-3.783,-1.755 -7.997,-2.742 -12.442,-2.742c-14.643,0 -26.796,10.629 -29.186,24.591c-4.92,-1.497 -10.139,-2.308 -15.549,-2.308c-5.009,0 -9.85,0.705 -14.447,1.996c-10.753,-26.041 -36.386,-44.373 -66.31,-44.373c-16.997,0 -32.602,5.924 -44.892,15.805c-5.498,-16.722 -21.231,-28.8 -39.792,-28.8c-1.219,0 -2.425,0.052 -3.616,0.155c-11.239,-12.706 -27.661,-20.722 -45.941,-20.722c-22.507,0 -42.198,12.152 -52.865,30.247c-2.896,-0.889 -5.972,-1.368 -9.159,-1.368c-6.436,0 -12.419,1.953 -17.388,5.297c-11.09,-11.027 -26.369,-17.845 -43.228,-17.845c-23.368,0 -43.701,13.1 -54.049,32.351c-4.526,-1.067 -9.245,-1.631 -14.095,-1.631c-17.23,0 -32.809,7.121 -43.953,18.579c-2.841,-0.852 -5.851,-1.31 -8.967,-1.31c-4.93,0 -9.595,1.146 -13.742,3.186c-5.214,-1.443 -10.707,-2.215 -16.378,-2.215c-15.037,0 -28.817,5.424 -39.488,14.421c-4.249,-2.169 -9.059,-3.392 -14.152,-3.392c-4.554,0 -8.882,0.978 -12.784,2.735c-10.557,-8.603 -24.029,-13.764 -38.696,-13.764c-16.018,0 -30.611,6.155 -41.538,16.228c-2.632,-0.722 -5.402,-1.108 -8.262,-1.108c-4.425,0 -8.637,0.923 -12.452,2.588c-5.596,-1.683 -11.527,-2.588 -17.668,-2.588c-8.839,0 -17.244,1.874 -24.84,5.251l0,-535.41l1200,0Z" style="fill:#80a0c2;"/><g><path d="M964.072,283.712c0.432,0 0.784,-0.352 0.784,-0.785l0,-4.761c0,-0.432 -0.352,-0.784 -0.784,-0.784c-0.433,0 -0.785,0.352 -0.785,0.784l0.001,4.762c0,0.432 0.352,0.784 0.784,0.784Z" style="fill:#d2e3d8;fill-rule:nonzero;"/><path d="M968.258,285.134c0.209,0 0.406,-0.082 0.554,-0.23l3.367,-3.367c0.149,-0.148 0.23,-0.344 0.23,-0.554c0,-0.209 -0.081,-0.407 -0.23,-0.555c-0.148,-0.149 -0.345,-0.23 -0.554,-0.23c-0.21,0 -0.407,0.081 -0.555,0.23l-3.367,3.367c-0.148,0.148 -0.23,0.345 -0.23,0.555c0,0.209 0.082,0.406 0.23,0.554c0.148,0.148 0.345,0.23 0.555,0.23Z" style="fill:#d2e3d8;fill-rule:nonzero;"/><path d="M974.973,289.099c0.433,0 0.785,-0.352 0.785,-0.784c0,-0.433 -0.352,-0.785 -0.785,-0.785l-4.761,0c-0.433,0 -0.785,0.352 -0.785,0.785c0,0.433 0.352,0.784 0.785,0.784l4.761,0Z" style="fill:#d2e3d8;fill-rule:nonzero;"/><path d="M972.157,296.652c0.209,0 0.406,-0.082 0.554,-0.23c0.148,-0.148 0.23,-0.346 0.23,-0.555c0,-0.21 -0.082,-0.406 -0.23,-0.554l-3.367,-3.368c-0.148,-0.147 -0.345,-0.23 -0.554,-0.23c-0.21,0 -0.407,0.083 -0.555,0.23c-0.148,0.149 -0.23,0.346 -0.23,0.555c0,0.21 0.082,0.406 0.23,0.555l3.367,3.367c0.148,0.148 0.345,0.23 0.555,0.23Z" style="fill:#d2e3d8;fill-rule:nonzero;"/><path d="M964.825,300c0.433,0 0.784,-0.352 0.784,-0.785l0,-4.76c0,-0.433 -0.352,-0.785 -0.784,-0.785c-0.433,0 -0.785,0.352 -0.785,0.785l0.001,4.76c0,0.433 0.351,0.785 0.784,0.785Z" style="fill:#d2e3d8;fill-rule:nonzero;"/><path d="M957.272,297.184c0.21,0 0.407,-0.081 0.555,-0.23l3.366,-3.367c0.149,-0.148 0.23,-0.345 0.23,-0.555c0,-0.209 -0.081,-0.406 -0.23,-0.554c-0.148,-0.149 -0.345,-0.23 -0.554,-0.23c-0.21,0 -0.407,0.082 -0.555,0.23l-3.366,3.367c-0.149,0.148 -0.23,0.346 -0.23,0.555c0,0.209 0.081,0.406 0.23,0.554c0.148,0.149 0.345,0.23 0.554,0.23Z" style="fill:#d2e3d8;fill-rule:nonzero;"/><path d="M958.685,289.852c0.433,0 0.784,-0.352 0.784,-0.785c0,-0.433 -0.351,-0.784 -0.784,-0.784l-4.762,0c-0.432,0 -0.784,0.352 -0.784,0.785c0,0.432 0.352,0.784 0.784,0.784l4.762,0Z" style="fill:#d2e3d8;fill-rule:nonzero;"/><path d="M960.106,285.666c0.21,0 0.407,-0.082 0.555,-0.23c0.149,-0.148 0.23,-0.345 0.23,-0.554c0,-0.21 -0.081,-0.407 -0.23,-0.555l-3.367,-3.366c-0.148,-0.148 -0.345,-0.23 -0.554,-0.23c-0.21,0 -0.407,0.082 -0.555,0.23c-0.306,0.305 -0.306,0.803 0,1.109l3.367,3.366c0.148,0.148 0.345,0.23 0.554,0.23Z" style="fill:#d2e3d8;fill-rule:nonzero;"/><path d="M631.465,184.724c0.576,0 1.045,-0.468 1.045,-1.045l0,-14.968c0,-0.576 -0.469,-1.045 -1.045,-1.045c-0.576,0 -1.045,0.469 -1.045,1.045l0,14.968c0,0.577 0.469,1.045 1.045,1.045Z" style="fill:#d2e3d8;fill-rule:nonzero;"/><path d="M638.948,177.24c0.576,0 1.045,-0.468 1.045,-1.045c0,-0.576 -0.469,-1.045 -1.045,-1.045l-14.967,0c-0.576,0 -1.044,0.469 -1.044,1.045c0,0.577 0.468,1.045 1.044,1.045l14.967,0Z" style="fill:#d2e3d8;fill-rule:nonzero;"/><path d="M989.289,171.466c0.392,0 0.71,-0.318 0.71,-0.71l0,-10.179c0,-0.392 -0.318,-0.711 -0.71,-0.711c-0.393,0 -0.711,0.319 -0.711,0.711l0,10.179c0,0.392 0.318,0.71 0.711,0.71Z" style="fill:#d2e3d8;fill-rule:nonzero;"/><path d="M994.377,166.377c0.393,0 0.711,-0.319 0.711,-0.711c0,-0.391 -0.318,-0.71 -0.711,-0.71l-10.178,0c-0.392,0 -0.711,0.319 -0.711,0.71c0,0.392 0.319,0.711 0.711,0.711l10.178,0Z" style="fill:#d2e3d8;fill-rule:nonzero;"/><path d="M517.535,238.507c0.392,0 0.711,-0.319 0.711,-0.71l0,-10.179c0,-0.392 -0.319,-0.711 -0.711,-0.711c-0.391,0 -0.711,0.319 -0.711,0.711l0,10.179c0,0.391 0.32,0.71 0.711,0.71Z" style="fill:#d2e3d8;fill-rule:nonzero;"/><path d="M522.624,233.418c0.392,0 0.711,-0.319 0.711,-0.711c0,-0.392 -0.319,-0.711 -0.711,-0.711l-10.179,0c-0.391,0 -0.71,0.319 -0.71,0.711c0,0.392 0.319,0.711 0.71,0.711l10.179,0Z" style="fill:#d2e3d8;fill-rule:nonzero;"/><path d="M1022.2,65.669c0.392,0 0.71,-0.319 0.71,-0.711l0,-10.179c0,-0.392 -0.318,-0.71 -0.71,-0.71c-0.392,0 -0.711,0.318 -0.711,0.71l0,10.179c0,0.392 0.319,0.711 0.711,0.711Z" style="fill:#d2e3d8;fill-rule:nonzero;"/><path d="M1027.29,60.58c0.392,0 0.711,-0.319 0.711,-0.711c0,-0.392 -0.319,-0.711 -0.711,-0.711l-10.179,0c-0.391,0 -0.71,0.319 -0.71,0.711c0,0.392 0.319,0.711 0.71,0.711l10.179,0Z" style="fill:#d2e3d8;fill-rule:nonzero;"/><path d="M896.824,63.239c1.097,0 1.989,0.892 1.989,1.989c0,1.097 -0.892,1.989 -1.989,1.989c-1.097,0 -1.99,-0.892 -1.99,-1.989c0,-1.097 0.893,-1.989 1.99,-1.989Zm0,5.179c1.759,0 3.19,-1.431 3.19,-3.19c0,-1.759 -1.431,-3.19 -3.19,-3.19c-1.759,0 -3.19,1.431 -3.19,3.19c0,1.759 1.431,3.19 3.19,3.19Z" style="fill:#d2e3d8;fill-rule:nonzero;"/><path d="M618.775,317.819c1.098,0 1.99,0.893 1.99,1.99c0,1.097 -0.892,1.989 -1.99,1.989c-1.096,0 -1.989,-0.892 -1.989,-1.989c0,-1.097 0.893,-1.99 1.989,-1.99Zm0,5.18c1.76,0 3.191,-1.43 3.191,-3.19c0,-1.759 -1.431,-3.19 -3.191,-3.19c-1.758,0 -3.189,1.431 -3.189,3.19c0,1.76 1.431,3.19 3.189,3.19Z" style="fill:#d2e3d8;fill-rule:nonzero;"/><path d="M1118.32,101.217c1.097,0 1.99,0.893 1.99,1.99c0,1.097 -0.893,1.989 -1.99,1.989c-1.097,0 -1.989,-0.892 -1.989,-1.989c0,-1.097 0.892,-1.99 1.989,-1.99Zm0,5.18c1.759,0 3.19,-1.431 3.19,-3.19c0,-1.759 -1.431,-3.19 -3.19,-3.19c-1.759,0 -3.19,1.431 -3.19,3.19c0,1.759 1.431,3.19 3.19,3.19Z" style="fill:#d2e3d8;fill-rule:nonzero;"/><path d="M541.835,54.179c1.097,0 1.989,0.893 1.989,1.99c0,1.097 -0.892,1.989 -1.989,1.989c-1.098,0 -1.989,-0.892 -1.989,-1.989c0,-1.097 0.891,-1.99 1.989,-1.99Zm0,5.18c1.759,0 3.189,-1.431 3.189,-3.19c0,-1.759 -1.43,-3.19 -3.189,-3.19c-1.76,0 -3.19,1.431 -3.19,3.19c0,1.759 1.43,3.19 3.19,3.19Z" style="fill:#d2e3d8;fill-rule:nonzero;"/><path d="M483.107,137.384c0.531,0 0.962,-0.427 0.962,-0.952c0,-0.53 -0.429,-0.962 -0.957,-0.962c-0.527,0 -0.957,0.43 -0.957,0.957c0,0.528 0.427,0.957 0.952,0.957Zm-3.832,1.574c0.253,0 0.493,-0.097 0.674,-0.273c0.37,-0.377 0.373,-0.989 0.003,-1.36c-0.181,-0.18 -0.422,-0.28 -0.677,-0.28c-0.255,0 -0.496,0.1 -0.676,0.28c-0.371,0.371 -0.373,0.977 -0.006,1.351c0.189,0.183 0.427,0.282 0.682,0.282Zm7.665,0.024c0.254,0 0.495,-0.1 0.676,-0.281c0.372,-0.373 0.373,-0.98 0,-1.353c-0.179,-0.182 -0.418,-0.281 -0.675,-0.281c-0.254,0 -0.496,0.1 -0.677,0.281c-0.182,0.179 -0.282,0.416 -0.283,0.671c-0.001,0.257 0.1,0.499 0.283,0.682c0.181,0.181 0.422,0.281 0.676,0.281Zm-9.267,3.828c0.527,-0.001 0.957,-0.432 0.957,-0.962c0,-0.538 -0.428,-0.976 -0.952,-0.976c-0.524,0 -0.956,0.426 -0.962,0.949c0,0.554 0.42,0.989 0.957,0.989Zm10.842,0.009c0.529,0 0.961,-0.43 0.961,-0.958c0,-0.527 -0.429,-0.956 -0.957,-0.956c-0.528,0 -0.957,0.427 -0.957,0.952c0,0.53 0.427,0.962 0.953,0.962Zm-9.253,3.818c0.255,0 0.495,-0.099 0.675,-0.281c0.371,-0.37 0.372,-0.976 0.002,-1.351c-0.182,-0.179 -0.424,-0.28 -0.679,-0.28c-0.256,0 -0.495,0.099 -0.675,0.279c-0.183,0.183 -0.283,0.425 -0.281,0.682c0.001,0.255 0.101,0.493 0.283,0.672c0.176,0.181 0.413,0.279 0.675,0.279Zm7.664,0.009c0.193,0 0.379,-0.058 0.537,-0.168l0.061,-0.042l0.006,0l0.075,-0.073c0.367,-0.367 0.368,-0.973 -0.001,-1.349c-0.182,-0.181 -0.424,-0.283 -0.679,-0.283c-0.257,0 -0.497,0.101 -0.677,0.283c-0.374,0.368 -0.375,0.972 -0.005,1.349c0.19,0.184 0.427,0.283 0.683,0.283Zm-3.837,1.584c0.528,-0.001 0.957,-0.43 0.957,-0.957c0,-0.528 -0.429,-0.956 -0.956,-0.956c-0.528,0 -0.957,0.429 -0.957,0.957c0,0.527 0.429,0.956 0.956,0.956Z" style="fill:#d2e3d8;fill-rule:nonzero;"/><path d="M1090.46,223.861c0.529,0 0.96,-0.427 0.96,-0.952c0,-0.53 -0.429,-0.962 -0.956,-0.962c-0.528,0 -0.957,0.43 -0.957,0.957c0,0.528 0.428,0.957 0.953,0.957Zm-3.833,1.574c0.253,0 0.492,-0.097 0.674,-0.273c0.37,-0.377 0.373,-0.989 0.002,-1.36c-0.18,-0.181 -0.421,-0.28 -0.677,-0.28c-0.255,0 -0.495,0.099 -0.676,0.28c-0.37,0.371 -0.373,0.977 -0.006,1.351c0.189,0.183 0.427,0.282 0.683,0.282Zm7.664,0.024c0.255,0 0.495,-0.1 0.677,-0.281c0.372,-0.373 0.372,-0.98 0,-1.353c-0.179,-0.182 -0.419,-0.281 -0.675,-0.281c-0.255,0 -0.496,0.1 -0.678,0.282c-0.181,0.178 -0.28,0.415 -0.281,0.67c-0.001,0.258 0.099,0.5 0.282,0.683c0.18,0.181 0.42,0.28 0.675,0.28Zm-9.267,3.827c0.527,0 0.957,-0.431 0.957,-0.962c0,-0.538 -0.427,-0.976 -0.952,-0.976c-0.524,0 -0.955,0.427 -0.962,0.95c0,0.553 0.421,0.988 0.957,0.988Zm10.841,0.01c0.531,0 0.962,-0.429 0.962,-0.957c0,-0.528 -0.429,-0.957 -0.957,-0.957c-0.528,0 -0.957,0.427 -0.957,0.952c0,0.53 0.427,0.962 0.952,0.962Zm-9.253,3.818c0.256,0 0.496,-0.1 0.677,-0.281c0.369,-0.37 0.37,-0.976 0.001,-1.351c-0.182,-0.18 -0.425,-0.28 -0.679,-0.28c-0.255,0 -0.495,0.099 -0.674,0.278c-0.184,0.183 -0.284,0.425 -0.283,0.682c0.001,0.255 0.102,0.494 0.284,0.673c0.175,0.181 0.414,0.279 0.674,0.279Zm7.665,0.009c0.193,0 0.379,-0.058 0.537,-0.168l0.061,-0.042l0.006,0l0.075,-0.073c0.367,-0.367 0.368,-0.973 -0.001,-1.348c-0.182,-0.183 -0.424,-0.283 -0.68,-0.283c-0.256,0 -0.496,0.1 -0.675,0.282c-0.375,0.369 -0.376,0.973 -0.006,1.35c0.189,0.183 0.427,0.282 0.683,0.282Zm-3.837,1.584c0.527,0 0.957,-0.429 0.957,-0.957c0,-0.528 -0.43,-0.957 -0.957,-0.957c-0.527,0 -0.957,0.429 -0.957,0.957c0,0.528 0.43,0.957 0.957,0.957Z" style="fill:#d2e3d8;fill-rule:nonzero;"/><path d="M668.626,63.26c0.377,0 0.684,-0.306 0.684,-0.684l0,-3.888c0,-0.377 -0.307,-0.684 -0.684,-0.684c-0.377,0 -0.685,0.307 -0.685,0.684l0,3.888c0,0.378 0.308,0.684 0.685,0.684Z" style="fill:#d2e3d8;fill-rule:nonzero;"/><path d="M672.044,64.422c0.183,0 0.353,-0.071 0.483,-0.2l2.75,-2.75c0.129,-0.129 0.201,-0.301 0.201,-0.484c0,-0.182 -0.072,-0.354 -0.201,-0.483c-0.129,-0.129 -0.3,-0.2 -0.483,-0.2c-0.183,0 -0.355,0.071 -0.483,0.2l-2.75,2.75c-0.267,0.266 -0.267,0.7 0,0.967c0.128,0.129 0.3,0.2 0.483,0.2Z" style="fill:#d2e3d8;fill-rule:nonzero;"/><path d="M677.528,67.661c0.378,0 0.685,-0.307 0.685,-0.684c0,-0.378 -0.307,-0.684 -0.685,-0.684l-3.888,0c-0.377,0 -0.684,0.306 -0.684,0.684c0,0.377 0.307,0.684 0.684,0.684l3.888,0Z" style="fill:#d2e3d8;fill-rule:nonzero;"/><path d="M675.229,73.829c0.181,0 0.354,-0.072 0.483,-0.201c0.129,-0.129 0.2,-0.301 0.2,-0.483c0,-0.183 -0.071,-0.355 -0.2,-0.484l-2.75,-2.75c-0.129,-0.129 -0.301,-0.2 -0.483,-0.2c-0.183,0 -0.355,0.071 -0.485,0.2c-0.265,0.266 -0.265,0.7 0,0.967l2.75,2.75c0.129,0.129 0.302,0.201 0.485,0.201Z" style="fill:#d2e3d8;fill-rule:nonzero;"/><path d="M669.24,76.563c0.377,0 0.684,-0.307 0.684,-0.684l0,-3.888c0,-0.378 -0.307,-0.684 -0.684,-0.684c-0.377,0 -0.684,0.306 -0.684,0.684l0,3.888c0,0.377 0.307,0.684 0.684,0.684Z" style="fill:#d2e3d8;fill-rule:nonzero;"/><path d="M663.072,74.263c0.183,0 0.355,-0.071 0.484,-0.2l2.749,-2.75c0.13,-0.129 0.201,-0.301 0.201,-0.484c0,-0.183 -0.071,-0.354 -0.201,-0.484c-0.129,-0.129 -0.301,-0.2 -0.484,-0.2c-0.182,0 -0.353,0.071 -0.483,0.2l-2.749,2.75c-0.13,0.129 -0.201,0.301 -0.201,0.484c0,0.182 0.071,0.354 0.201,0.484c0.129,0.129 0.301,0.2 0.483,0.2Z" style="fill:#d2e3d8;fill-rule:nonzero;"/><path d="M664.226,68.275c0.377,0 0.684,-0.307 0.684,-0.685c0,-0.377 -0.307,-0.684 -0.684,-0.684l-3.889,0c-0.377,0 -0.684,0.307 -0.684,0.684c0,0.378 0.307,0.685 0.684,0.685l3.889,0Z" style="fill:#d2e3d8;fill-rule:nonzero;"/><path d="M665.387,64.856c0.182,0 0.355,-0.071 0.484,-0.2c0.129,-0.13 0.2,-0.301 0.2,-0.484c0,-0.183 -0.071,-0.354 -0.2,-0.483l-2.749,-2.75c-0.13,-0.129 -0.302,-0.2 -0.484,-0.2c-0.183,0 -0.355,0.071 -0.484,0.2c-0.266,0.267 -0.266,0.701 0,0.967l2.749,2.75c0.13,0.129 0.302,0.2 0.484,0.2Z" style="fill:#d2e3d8;fill-rule:nonzero;"/></g><g id="rocketship"><path d="M1049.44,367.643l-53.842,0c-4.651,0 -9.08,-2.083 -11.965,-5.73c-30.495,-38.548 -49.267,-90.915 -49.267,-148.652c0,-71.935 29.116,-135.557 73.769,-174.473c8.256,-7.195 20.512,-7.195 28.767,0c44.653,38.916 73.769,102.538 73.769,174.473c0,57.737 -18.771,110.104 -49.266,148.652c-2.885,3.647 -7.316,5.73 -11.965,5.73Z" style="fill:#f3f4f5;fill-rule:nonzero;"/><path d="M976.149,353.874c-26.678,0 -48.769,19.591 -52.699,45.171c-0.548,3.568 -3.536,6.247 -7.146,6.247l-1.074,0c-3.415,0 -6.386,-2.388 -7.068,-5.733c-1.88,-9.237 -2.882,-18.793 -2.882,-28.586c0,-36.759 13.868,-70.271 36.642,-95.621c7.295,29.341 19.602,56.015 35.734,78.561c-0.502,-0.013 -1.002,-0.039 -1.507,-0.039Z" style="fill:#c16069;fill-rule:nonzero;"/><path d="M1068.92,353.874c26.678,0 48.769,19.591 52.699,45.171c0.548,3.568 3.536,6.247 7.146,6.247l1.074,0c3.415,0 6.387,-2.388 7.068,-5.733c1.879,-9.237 2.882,-18.793 2.882,-28.586c0,-36.759 -13.868,-70.271 -36.642,-95.621c-7.294,29.341 -19.603,56.015 -35.734,78.561c0.502,-0.013 1.001,-0.039 1.507,-0.039Z" style="fill:#c16069;fill-rule:nonzero;"/><path d="M1036.79,38.699c19.553,17.02 36.123,38.783 48.591,63.898l-125.737,0c12.468,-25.115 29.039,-46.878 48.591,-63.898c8.177,-7.119 20.379,-7.119 28.555,0Z" style="fill:#c16069;fill-rule:nonzero;"/><path d="M949.232,199.557c0,40.471 32.81,73.282 73.283,73.282c40.472,0 73.281,-32.811 73.281,-73.282c0,-40.473 -32.809,-73.283 -73.281,-73.283c-40.473,0 -73.283,32.81 -73.283,73.283Z" style="fill:#d2d3d4;fill-rule:nonzero;"/><path d="M949.232,197.567c0,40.473 32.81,73.283 73.283,73.283c40.472,0 73.281,-32.81 73.281,-73.283c0,-40.473 -32.809,-73.281 -73.281,-73.281c-40.473,0 -73.283,32.808 -73.283,73.281Z" style="fill:#e6e7e8;fill-rule:nonzero;"/><path d="M1014.85,132.744c1.317,-0.143 2.262,-1.341 2.107,-2.659c-0.156,-1.304 -1.342,-2.251 -2.658,-2.095c-1.318,0.155 -2.252,1.341 -2.096,2.659c0.144,1.221 1.174,2.12 2.371,2.12c0.097,0 0.191,-0.012 0.276,-0.025Zm18.405,-2.035c0.156,-1.306 -0.767,-2.504 -2.084,-2.672c-1.317,-0.155 -2.503,0.78 -2.671,2.096c-0.166,1.305 0.767,2.503 2.084,2.671c0.096,0.013 0.204,0.013 0.3,0.013c1.185,0 2.227,-0.888 2.371,-2.108Zm-33.686,5.736c1.246,-0.455 1.868,-1.844 1.402,-3.078c-0.467,-1.245 -1.845,-1.869 -3.09,-1.402c-1.234,0.468 -1.856,1.844 -1.39,3.089c0.359,0.96 1.271,1.546 2.24,1.546c0.276,0 0.563,-0.047 0.838,-0.155Zm49.361,-1.233c0.479,-1.235 -0.144,-2.623 -1.377,-3.09c-1.233,-0.479 -2.622,0.143 -3.09,1.376c-0.479,1.233 0.144,2.622 1.377,3.091c0.276,0.12 0.575,0.167 0.851,0.167c0.97,0 1.88,-0.586 2.239,-1.544Zm-63.299,8.514c1.089,-0.755 1.365,-2.241 0.61,-3.331c-0.742,-1.088 -2.239,-1.376 -3.329,-0.621c-1.09,0.741 -1.364,2.238 -0.622,3.328c0.467,0.682 1.221,1.043 1.976,1.043c0.467,0 0.945,-0.144 1.365,-0.419Zm77.429,-0.384c0.755,-1.078 0.491,-2.574 -0.598,-3.33c-1.078,-0.754 -2.575,-0.491 -3.329,0.599c-0.755,1.09 -0.491,2.576 0.598,3.341c0.419,0.288 0.898,0.42 1.366,0.42c0.754,0 1.508,-0.36 1.963,-1.03Zm-89.237,10.777c0.874,-0.993 0.791,-2.502 -0.191,-3.388c-0.994,-0.875 -2.503,-0.79 -3.39,0.192c-0.873,0.993 -0.79,2.502 0.193,3.388c0.455,0.407 1.03,0.612 1.592,0.612c0.658,0 1.317,-0.277 1.796,-0.804Zm101.032,0.504c0.995,-0.875 1.09,-2.396 0.204,-3.378c-0.874,-0.993 -2.383,-1.089 -3.377,-0.214c-0.994,0.873 -1.089,2.381 -0.215,3.376c0.479,0.539 1.137,0.815 1.808,0.815c0.563,0 1.126,-0.204 1.58,-0.599Zm-110.025,12.393c0.622,-1.161 0.18,-2.622 -0.993,-3.233c-1.163,-0.622 -2.623,-0.18 -3.235,0.982c-0.623,1.173 -0.179,2.622 0.983,3.245c0.359,0.191 0.742,0.276 1.125,0.276c0.862,0 1.689,-0.456 2.12,-1.27Zm118.792,1.366c1.173,-0.611 1.628,-2.06 1.005,-3.233c-0.61,-1.173 -2.059,-1.629 -3.233,-1.006c-1.162,0.61 -1.616,2.059 -1.006,3.221c0.432,0.825 1.258,1.293 2.12,1.293c0.383,0 0.754,-0.096 1.114,-0.275Zm-124.432,13.315c0.323,-1.293 -0.456,-2.587 -1.736,-2.91c-1.282,-0.323 -2.587,0.468 -2.911,1.749c-0.311,1.281 0.468,2.574 1.75,2.898c0.19,0.047 0.394,0.072 0.586,0.072c1.066,0 2.047,-0.719 2.311,-1.809Zm129.641,2.143c1.281,-0.311 2.071,-1.604 1.76,-2.885c-0.324,-1.28 -1.617,-2.072 -2.898,-1.759c-1.281,0.311 -2.072,1.604 -1.761,2.884c0.264,1.103 1.246,1.833 2.324,1.833c0.191,0 0.383,-0.023 0.575,-0.073Zm-131.581,13.724l0,-0.119l0,-0.144c0.012,-1.329 -1.054,-2.406 -2.383,-2.406c-1.317,0 -2.395,1.065 -2.407,2.382l0.012,0.156l-0.012,0.131c0,1.33 1.077,2.395 2.395,2.395c1.328,0 2.395,-1.065 2.395,-2.395Zm135.316,0.145c0,-1.319 -1.065,-2.396 -2.382,-2.396c-1.329,0 -2.407,1.065 -2.407,2.396c0,1.316 1.065,2.394 2.394,2.394c1.318,0 2.395,-1.066 2.395,-2.394Zm-135.185,18.368c1.282,-0.311 2.06,-1.615 1.749,-2.898c-0.312,-1.28 -1.616,-2.07 -2.899,-1.759c-1.28,0.323 -2.071,1.616 -1.748,2.897c0.265,1.103 1.245,1.832 2.323,1.832c0.193,0 0.384,-0.023 0.575,-0.072Zm133.138,-1.615c0.311,-1.283 -0.467,-2.588 -1.749,-2.899c-1.28,-0.323 -2.585,0.468 -2.897,1.749c-0.324,1.281 0.455,2.587 1.748,2.897c0.192,0.048 0.383,0.073 0.575,0.073c1.077,0 2.047,-0.732 2.323,-1.82Zm-126.815,16.657c1.161,-0.612 1.616,-2.06 1.006,-3.234c-0.622,-1.173 -2.071,-1.616 -3.234,-1.005c-1.172,0.61 -1.627,2.059 -1.017,3.233c0.432,0.813 1.268,1.281 2.132,1.281c0.371,0 0.755,-0.083 1.113,-0.275Zm120.791,-0.887c0.624,-1.161 0.18,-2.61 -0.993,-3.233c-1.174,-0.622 -2.623,-0.168 -3.233,0.994c-0.624,1.173 -0.168,2.622 0.993,3.246c0.36,0.19 0.743,0.275 1.114,0.275c0.862,0 1.701,-0.468 2.119,-1.282Zm-111.056,13.976c0.995,-0.875 1.09,-2.395 0.205,-3.39c-0.874,-0.983 -2.383,-1.078 -3.376,-0.203c-0.995,0.886 -1.079,2.395 -0.205,3.388c0.467,0.526 1.125,0.802 1.797,0.802c0.563,0 1.125,-0.191 1.579,-0.597Zm101.44,-0.11c0.875,-0.98 0.791,-2.501 -0.191,-3.376c-0.994,-0.887 -2.503,-0.79 -3.389,0.193c-0.874,0.993 -0.79,2.501 0.204,3.388c0.454,0.407 1.018,0.597 1.593,0.597c0.658,0 1.317,-0.263 1.783,-0.802Zm-88.865,10.504c0.754,-1.091 0.491,-2.587 -0.599,-3.341c-1.09,-0.756 -2.587,-0.48 -3.342,0.611c-0.754,1.09 -0.477,2.573 0.611,3.329c0.42,0.285 0.886,0.43 1.366,0.43c0.755,0 1.497,-0.36 1.964,-1.029Zm76.22,0.681c1.09,-0.754 1.365,-2.25 0.611,-3.341c-0.754,-1.09 -2.24,-1.353 -3.329,-0.611c-1.09,0.756 -1.365,2.241 -0.611,3.331c0.467,0.681 1.21,1.042 1.976,1.042c0.467,0 0.934,-0.145 1.353,-0.421Zm-61.527,6.395c0.467,-1.245 -0.155,-2.621 -1.389,-3.089c-1.234,-0.479 -2.623,0.143 -3.09,1.388c-0.479,1.235 0.144,2.612 1.39,3.09c0.274,0.108 0.563,0.155 0.85,0.155c0.958,0 1.868,-0.586 2.239,-1.544Zm46.57,1.437c1.246,-0.466 1.868,-1.855 1.402,-3.09c-0.479,-1.233 -1.856,-1.855 -3.09,-1.389c-1.233,0.469 -1.868,1.845 -1.401,3.09c0.371,0.958 1.282,1.544 2.251,1.544c0.275,0 0.563,-0.048 0.838,-0.155Zm-30.607,1.905c0.155,-1.319 -0.779,-2.504 -2.096,-2.67c-1.306,-0.157 -2.504,0.777 -2.659,2.096c-0.155,1.303 0.779,2.501 2.084,2.657c0.096,0.012 0.192,0.025 0.288,0.025c1.197,0 2.239,-0.898 2.383,-2.108Zm14.202,2.108c1.317,-0.157 2.251,-1.354 2.095,-2.66c-0.156,-1.316 -1.341,-2.251 -2.658,-2.095c-1.317,0.155 -2.251,1.341 -2.096,2.659c0.144,1.221 1.174,2.108 2.371,2.108c0.096,0 0.192,0 0.288,-0.012Z" style="fill:#babbbe;fill-rule:nonzero;"/><path d="M959.646,197.567c0,34.721 28.148,62.869 62.869,62.869c34.721,0 62.868,-28.148 62.868,-62.869c0,-34.72 -28.147,-62.868 -62.868,-62.868c-34.721,0 -62.869,28.148 -62.869,62.868Z" style="fill:#949699;fill-rule:nonzero;"/><clipPath id="_clip2"><path d="M959.646,197.567c0,34.721 28.148,62.869 62.869,62.869c34.721,0 62.868,-28.148 62.868,-62.869c0,-34.72 -28.147,-62.868 -62.868,-62.868c-34.721,0 -62.869,28.148 -62.869,62.868Z" clip-rule="nonzero"/></clipPath><g clip-path="url(#_clip2)"><clipPath id="_clip3"><path d="M1022.51,260.436c10.861,0 21.077,-2.754 29.991,-7.602l-0.306,-4.682c15.793,-33.486 16.196,-65.564 16.196,-65.564l-0.468,-0.008l0.172,-1.309l-0.613,-0.033c0.967,-2.761 1.941,-6.713 -0.254,-7.103c-0.097,-0.017 -0.191,-0.026 -0.28,-0.026c-0.804,0 -1.315,0.661 -1.402,1.414c0.096,-0.836 0.056,-2.039 -1.016,-2.193c-0.079,-0.012 -0.154,-0.017 -0.227,-0.017c-1.028,0 -1.536,1.06 -1.6,1.668c0.042,-0.798 0.584,-2.368 -1.272,-2.689c-0.039,-0.006 -0.079,-0.009 -0.12,-0.009c-0.741,0 -1.755,1.073 -1.872,1.858c0.246,-3.466 0.922,-11.449 -1.601,-11.751c-0.021,-0.003 -0.042,-0.004 -0.062,-0.004c-2,0 -1.71,11.944 -1.419,18.232l-0.427,-0.024l-0.053,1.769l-0.967,-0.019c0,0 -0.215,23.012 -7.036,45.502c-0.539,-11.051 -3.055,-32.081 -14.049,-44.207c19.813,-12.519 9.414,-32.33 9.414,-32.33c-5.084,6.858 -8.747,9.03 -12.296,9.03c-3.07,0 -6.055,-1.625 -9.8,-3.251c-3.745,-1.626 -8.251,-3.254 -14.365,-3.254c-2.6,0 -5.491,0.294 -8.737,1.009c-19.566,4.3 -18.72,20.181 -18.72,20.181c-0.147,-0.003 -0.29,-0.004 -0.435,-0.004c-30.201,0 -1.339,65.38 -0.768,65.477l-0.536,0.065l0.122,1.105c11.404,11.586 27.265,18.769 44.806,18.769Zm-43.443,-21.107c0.067,0.394 0.126,0.741 0.179,1.031l-1.111,0.134c0.313,-0.362 0.624,-0.755 0.932,-1.165Z"/></clipPath><g clip-path="url(#_clip3)"><rect x="959.646" y="151.309" width="109.782" height="109.126" style="fill:#787c7f;fill-rule:nonzero;"/></g><path d="M1060.24,158.798c2.524,0.302 1.848,8.285 1.601,11.751c0.124,-0.828 1.246,-1.978 1.993,-1.849c1.856,0.32 1.314,1.89 1.272,2.689c0.068,-0.653 0.646,-1.822 1.827,-1.651c1.072,0.152 1.112,1.355 1.016,2.191c0.096,-0.836 0.717,-1.56 1.682,-1.388c3.402,0.608 -0.809,9.786 -0.809,9.786l-9.854,0.473c0,0 -1.526,-22.337 1.272,-22.002Z" style="fill:#fddabb;fill-rule:nonzero;"/><path d="M1058.26,179.415l0.071,-2.413l12.166,0.677l-0.292,2.22l-11.945,-0.484Z" style="fill:#f6f8f9;fill-rule:nonzero;"/><path d="M1038.75,249.14c18.143,-25.689 18.557,-70.387 18.557,-70.387l13.481,0.242c0,0 -0.487,40.128 -22.469,77.472l-9.569,-7.327Z" style="fill:#333;fill-rule:nonzero;"/><path d="M1066.99,182.153c0.051,0.715 0.675,1.254 1.396,1.204c0.718,-0.05 1.259,-0.671 1.208,-1.386c-0.052,-0.716 -0.676,-1.256 -1.395,-1.206c-0.719,0.052 -1.261,0.673 -1.209,1.388Z" style="fill:#565858;fill-rule:nonzero;"/><path d="M1066.53,186.678c0.051,0.716 0.676,1.255 1.394,1.204c0.719,-0.051 1.261,-0.67 1.21,-1.388c-0.051,-0.715 -0.676,-1.254 -1.395,-1.203c-0.719,0.051 -1.26,0.672 -1.209,1.387Z" style="fill:#565858;fill-rule:nonzero;"/><path d="M981.859,237.89c0,0 -12.169,-58.031 24.415,-66.064c46.635,-10.239 44.115,59.692 44.115,59.692l-68.53,6.372Z" style="fill:#fddabb;fill-rule:nonzero;"/><path d="M1002.68,234.217l24.477,25.63l17.891,-30.112l8.536,-0.589l3.531,54.01c0,0 -9.706,3.122 -21.86,5.394c-5.075,1.04 -12.903,1.969 -12.903,1.969c-7.998,0.795 -24.86,1.476 -36.272,1.561l-6.101,-55.111l22.701,-2.752Z" style="fill:#333;fill-rule:nonzero;"/><path d="M1045.05,229.735l-17.891,30.112l-24.477,-25.63l42.368,-4.482Z" style="fill:#f6f8f9;fill-rule:nonzero;"/><path d="M1045.05,229.735l1.511,11.941l-6.617,2.072l1.882,9.013l-14.667,7.086l17.891,-30.112Z" style="fill:#565858;fill-rule:nonzero;"/><path d="M1027.16,259.847l-15.482,-5.655l-0.157,-6.68l-7.377,-1.846l-1.461,-11.449l24.477,25.63Z" style="fill:#565858;fill-rule:nonzero;"/><path d="M1030.92,237.123l-2.574,-3.108l-5.776,0.388l-1.703,4.237l2.593,2.478l-1.831,12.966l5.528,5.763l4.756,-7.997l-3.337,-11.128l2.344,-3.599Z" style="fill:#333;fill-rule:nonzero;"/><path d="M1045.64,147.717c0,0 21.086,40.165 -53.982,42.252l0.56,14.9c0,0 -6.546,-5.09 -7.487,1.807c-1.084,7.942 7.428,5.063 7.428,5.063c0,0 -5.263,17.84 -11.632,25.173c-0.355,0.409 -29.839,-66.111 1.195,-65.48c0,0 -0.845,-15.882 18.72,-20.183c27.337,-6.007 29.446,17.715 45.198,-3.532Z" style="fill:#594a42;fill-rule:nonzero;"/><path d="M1033.16,213.534c1.105,5.993 -2.857,11.744 -8.849,12.848c-5.992,1.104 -11.744,-2.858 -12.848,-8.849l21.697,-3.999Z" style="fill:#eb7d86;fill-rule:nonzero;"/><path d="M1010.2,204.46c0.584,2.538 -0.006,4.84 -1.317,5.141c-1.312,0.302 -2.848,-1.511 -3.432,-4.047c-0.583,-2.538 0.007,-4.839 1.318,-5.141c1.311,-0.302 2.847,1.511 3.431,4.047Z" style="fill:#594a42;fill-rule:nonzero;"/><path d="M1037.69,198.344c0.584,2.538 -0.006,4.84 -1.318,5.141c-1.311,0.302 -2.847,-1.51 -3.43,-4.047c-0.584,-2.538 0.006,-4.838 1.317,-5.14c1.312,-0.303 2.848,1.51 3.431,4.046Z" style="fill:#594a42;fill-rule:nonzero;"/></g><path d="M1071.41,98.507c0.778,0 1.557,-0.323 2.108,-0.874c0.562,-0.561 0.886,-1.329 0.886,-2.119c0,-0.791 -0.324,-1.568 -0.886,-2.119c-0.557,-0.557 -1.336,-0.836 -2.114,-0.836c-0.778,0 -1.557,0.279 -2.114,0.836c-0.562,0.563 -0.874,1.328 -0.874,2.119c0,0.79 0.312,1.558 0.874,2.119c0.551,0.551 1.33,0.874 2.12,0.874Z" style="fill:#9f492e;fill-rule:nonzero;"/><path d="M1054.93,98.507c1.652,0 2.993,-1.341 2.993,-2.993c0,-1.653 -1.341,-2.994 -2.993,-2.994c-1.653,0 -2.994,1.341 -2.994,2.994c0,1.652 1.341,2.993 2.994,2.993Z" style="fill:#9f492e;fill-rule:nonzero;"/><path d="M989.018,98.507c1.655,0 2.995,-1.341 2.995,-2.993c0,-1.653 -1.34,-2.994 -2.995,-2.994c-1.652,0 -2.993,1.341 -2.993,2.994c0,1.652 1.341,2.993 2.993,2.993Zm16.479,0c1.652,0 2.994,-1.341 2.994,-2.993c0,-1.653 -1.342,-2.994 -2.994,-2.994c-1.652,0 -2.993,1.341 -2.993,2.994c0,1.652 1.341,2.993 2.993,2.993Zm16.477,0c1.653,0 2.994,-1.341 2.994,-2.993c0,-1.653 -1.341,-2.994 -2.994,-2.994c-1.652,0 -2.994,1.341 -2.994,2.994c0,1.652 1.342,2.993 2.994,2.993Zm16.478,0c1.653,0 2.994,-1.341 2.994,-2.993c0,-1.653 -1.341,-2.994 -2.994,-2.994c-1.653,0 -2.994,1.341 -2.994,2.994c0,1.652 1.341,2.993 2.994,2.993Z" style="fill:#9f492e;fill-rule:nonzero;"/><path d="M972.542,98.507c0.79,0 1.557,-0.323 2.12,-0.874c0.551,-0.561 0.873,-1.329 0.873,-2.119c0,-0.791 -0.322,-1.556 -0.873,-2.119c-0.557,-0.557 -1.339,-0.836 -2.12,-0.836c-0.781,0 -1.563,0.279 -2.119,0.836c-0.551,0.563 -0.875,1.328 -0.875,2.119c0,0.79 0.324,1.558 0.875,2.119c0.562,0.551 1.328,0.874 2.119,0.874Z" style="fill:#9f492e;fill-rule:nonzero;"/><path d="M1086.44,104.719l-127.855,0c0.345,-0.712 0.708,-1.412 1.059,-2.122l125.737,0c0.352,0.71 0.714,1.41 1.059,2.122Z" style="fill:#e6e7e8;fill-rule:nonzero;"/><path d="M1076.47,354.413c0.002,-0.002 0.004,-0.004 0.005,-0.007c-2.425,-0.344 -4.906,-0.525 -7.425,-0.532c2.52,0.007 4.995,0.196 7.42,0.539Zm-7.447,-0.539c-0.012,0 -0.024,0 -0.035,0c0.012,0 0.023,0 0.035,0Zm-0.415,-1.648c0.017,-0.024 0.034,-0.048 0.05,-0.072c-0.017,0.024 -0.032,0.046 -0.05,0.072Zm0.054,-0.078c5.135,-7.336 9.869,-15.093 14.163,-23.231c-0.24,0.455 -0.482,0.91 -0.725,1.364c-3.388,6.313 -7.045,12.399 -10.947,18.227c-0.008,0.013 -0.015,0.024 -0.023,0.037c-0.007,0.008 -0.015,0.021 -0.022,0.03c-0.806,1.204 -1.619,2.392 -2.446,3.573Zm34.646,-76.616c-0.004,-0.004 -0.008,-0.009 -0.012,-0.013c0.004,0.004 0.008,0.009 0.012,0.013Zm-0.058,-0.064c-0.011,-0.013 -0.022,-0.026 -0.034,-0.039c0.012,0.013 0.023,0.026 0.034,0.039Z" style="fill:#7da691;fill-rule:nonzero;"/><path d="M1067.68,353.54c0.31,-0.435 0.621,-0.875 0.928,-1.314c0.018,-0.026 0.033,-0.048 0.05,-0.072c0.001,-0.002 0.003,-0.004 0.004,-0.006c0.827,-1.181 1.64,-2.369 2.446,-3.573c-0.545,0.816 -1.095,1.624 -1.65,2.429c-0.587,0.849 -1.181,1.696 -1.778,2.536Zm3.45,-4.995c0.008,-0.013 0.015,-0.024 0.023,-0.037c-0.008,0.013 -0.015,0.024 -0.023,0.037Zm10.97,-18.264c0.243,-0.454 0.485,-0.909 0.725,-1.364c7.695,-14.578 13.977,-30.366 18.616,-47.077c-4.784,17.235 -11.315,33.484 -19.341,48.441Z" style="fill:#d9dbdc;fill-rule:nonzero;"/><path d="M1076.48,354.406c13.929,-21.663 24.703,-46.467 31.487,-73.396c-1.508,-1.864 -3.056,-3.693 -4.654,-5.478c-0.004,-0.004 -0.008,-0.009 -0.012,-0.013c-0.015,-0.017 -0.031,-0.034 -0.046,-0.051c-0.011,-0.013 -0.022,-0.026 -0.034,-0.039c-0.023,-0.026 -0.046,-0.051 -0.069,-0.077c-0.541,2.177 -1.11,4.34 -1.706,6.488c-4.639,16.711 -10.921,32.499 -18.616,47.077c-4.294,8.138 -9.028,15.895 -14.163,23.231c-0.001,0.002 -0.003,0.004 -0.004,0.006c-0.016,0.024 -0.033,0.048 -0.05,0.072c-0.307,0.439 -0.618,0.879 -0.928,1.314c-0.088,0.123 -0.178,0.25 -0.266,0.373c0.454,-0.013 0.907,-0.033 1.364,-0.037c0.047,-0.002 0.094,-0.002 0.142,-0.002l0.13,0c2.519,0.007 5,0.188 7.425,0.532Z" style="fill:#9f492e;fill-rule:nonzero;"/><path d="M968.557,354.42c2.421,-0.346 4.893,-0.537 7.409,-0.546c-2.515,0.009 -4.993,0.192 -7.414,0.537c0.001,0.004 0.003,0.006 0.005,0.009Zm7.412,-0.546c0.016,0 0.032,0 0.047,0c-0.016,0 -0.03,0 -0.047,0Zm0.08,0c0.01,0 0.021,0 0.031,0c-0.011,0 -0.02,0 -0.031,0Zm-34.21,-78.429c0.003,-0.003 0.004,-0.004 0.007,-0.008c-0.002,0.002 -0.005,0.005 -0.007,0.008Z" style="fill:#7da691;fill-rule:nonzero;"/><path d="M968.552,354.411c2.421,-0.345 4.899,-0.528 7.414,-0.537l0.183,0c0.048,0 0.095,0 0.142,0.002c0.441,0.003 0.879,0.022 1.318,0.035c-16.116,-22.535 -28.431,-49.203 -35.72,-78.522c-0.015,0.015 -0.029,0.032 -0.043,0.048c-0.003,0.004 -0.004,0.005 -0.007,0.008c-1.637,1.825 -3.222,3.699 -4.766,5.608c6.785,26.916 17.556,51.705 31.479,73.358Z" style="fill:#9f492e;fill-rule:nonzero;"/><path d="M995.594,367.643l52.942,0l0.9,0c4.649,0 9.08,-2.083 11.965,-5.73c0.028,-0.035 0.054,-0.069 0.082,-0.104c-0.028,0.035 -0.054,0.069 -0.082,0.104c-2.885,3.647 -7.316,5.73 -11.965,5.73l-53.842,0c-4.651,0 -9.08,-2.083 -11.965,-5.73c-2.061,-2.604 -4.067,-5.272 -6.019,-8c1.951,2.729 3.957,5.395 6.018,8c2.886,3.647 7.315,5.73 11.966,5.73Zm65.918,-5.872c0.017,-0.02 0.036,-0.045 0.053,-0.067c-0.018,0.024 -0.034,0.045 -0.053,0.067Zm0.087,-0.11c0.017,-0.022 0.033,-0.041 0.05,-0.063c-0.016,0.022 -0.033,0.043 -0.05,0.063Zm0.084,-0.106c0.016,-0.019 0.034,-0.043 0.05,-0.063c-0.017,0.02 -0.033,0.042 -0.05,0.063Zm0.084,-0.106c0.017,-0.023 0.034,-0.043 0.051,-0.066c-0.017,0.021 -0.034,0.045 -0.051,0.066Zm0.111,-0.141c0.017,-0.022 0.031,-0.04 0.048,-0.063c-0.014,0.019 -0.034,0.043 -0.048,0.063Zm0.091,-0.117c0.013,-0.015 0.026,-0.032 0.038,-0.048c-0.013,0.016 -0.025,0.031 -0.038,0.048Zm0.085,-0.108c0.01,-0.013 0.022,-0.028 0.033,-0.043c-0.011,0.015 -0.022,0.028 -0.033,0.043Zm0.082,-0.105c0.009,-0.011 0.02,-0.026 0.029,-0.039c-0.009,0.013 -0.02,0.028 -0.029,0.039Zm0.081,-0.104c0.007,-0.008 0.013,-0.017 0.019,-0.024c-0.006,0.007 -0.013,0.017 -0.019,0.024Zm0.216,-0.278c0.005,-0.006 0.008,-0.01 0.013,-0.017c-0.004,0.006 -0.009,0.013 -0.013,0.017Zm0.075,-0.095c0.005,-0.006 0.011,-0.015 0.015,-0.021c-0.005,0.008 -0.009,0.013 -0.015,0.021Zm0.08,-0.103c0.003,-0.004 0.005,-0.006 0.008,-0.011c-0.002,0.002 -0.006,0.008 -0.008,0.011Z" style="fill:#83ad96;fill-rule:nonzero;"/><path d="M995.594,367.643l53.842,0c4.649,0 9.08,-2.083 11.965,-5.73c0.028,-0.035 0.054,-0.069 0.082,-0.104c0.01,-0.012 0.02,-0.025 0.029,-0.038c0.019,-0.022 0.035,-0.043 0.053,-0.067c0.011,-0.013 0.023,-0.028 0.034,-0.043c0.017,-0.02 0.034,-0.041 0.05,-0.063c0.013,-0.017 0.022,-0.028 0.034,-0.043c0.017,-0.021 0.033,-0.043 0.05,-0.063c0.011,-0.014 0.023,-0.029 0.034,-0.043c0.017,-0.021 0.034,-0.045 0.051,-0.066c0.02,-0.026 0.039,-0.05 0.06,-0.075c0.014,-0.02 0.034,-0.044 0.048,-0.063c0.014,-0.017 0.029,-0.037 0.043,-0.054c0.013,-0.017 0.025,-0.032 0.038,-0.048c0.016,-0.021 0.031,-0.04 0.047,-0.06c0.011,-0.015 0.022,-0.028 0.033,-0.043c0.017,-0.021 0.032,-0.039 0.049,-0.062c0.009,-0.011 0.02,-0.026 0.029,-0.039c0.018,-0.02 0.035,-0.043 0.052,-0.065c0.006,-0.007 0.013,-0.017 0.019,-0.024c0.066,-0.086 0.131,-0.167 0.197,-0.254c0.004,-0.004 0.009,-0.011 0.013,-0.017c0.02,-0.024 0.042,-0.054 0.062,-0.078c0.006,-0.008 0.01,-0.013 0.015,-0.021c0.022,-0.028 0.044,-0.056 0.065,-0.082c0.002,-0.003 0.006,-0.009 0.008,-0.011c1.642,-2.116 3.251,-4.276 4.822,-6.474l0,0c0.688,-0.963 1.37,-1.933 2.045,-2.909c21.093,-30.572 35.305,-68.397 39.729,-109.97c-13.396,57.161 -28.914,91.026 -84.237,91.026c-55.323,0 -79.606,-44.167 -90.494,-111.954c0.495,19.173 3.058,37.703 7.428,55.283c0.011,-0.012 0.022,-0.024 0.033,-0.037c0.541,2.177 1.11,4.34 1.706,6.488c7.437,26.79 19.094,51.2 34.028,72.073l-0.001,0l0.001,0c-0.015,0 -0.03,0 -0.046,0c1.952,2.728 3.958,5.396 6.019,8c2.885,3.647 7.314,5.73 11.965,5.73Z" style="fill:#e4e6e6;fill-rule:nonzero;"/><path d="M977.656,353.913c-0.016,0 -0.032,-0.002 -0.047,-0.002l0.001,0.002c0.016,0 0.031,0 0.046,0Zm-34.028,-72.073c-0.596,-2.148 -1.165,-4.311 -1.706,-6.488c-0.011,0.013 -0.022,0.025 -0.033,0.037c0.011,-0.012 0.022,-0.024 0.033,-0.037c0.541,2.177 1.11,4.34 1.706,6.488Z" style="fill:#a64d30;fill-rule:nonzero;"/><path d="M1067.42,353.913c0.001,-0.002 -0.001,0.002 0.001,0l-0.001,0Z" style="fill:#a64d30;fill-rule:nonzero;"/><path d="M1067.42,353.913l0.001,0c0.089,-0.125 0.177,-0.248 0.266,-0.373c0.597,-0.84 1.191,-1.687 1.778,-2.536c-0.675,0.976 -1.357,1.946 -2.045,2.909Z" style="fill:#ced1d2;fill-rule:nonzero;"/><path d="M1067.42,353.913c0.088,-0.123 0.178,-0.25 0.266,-0.373c-0.089,0.125 -0.177,0.248 -0.267,0.373" style="fill:#96442b;fill-rule:nonzero;"/><path d="M977.656,353.913c-14.934,-20.873 -26.591,-45.283 -34.028,-72.073c7.437,26.79 19.094,51.2 34.028,72.073l0,0Z" style="fill:#ced1d2;fill-rule:nonzero;"/><path d="M977.656,353.913c-14.934,-20.873 -26.591,-45.283 -34.028,-72.073c-0.596,-2.148 -1.165,-4.311 -1.706,-6.488c-0.011,0.013 -0.022,0.025 -0.033,0.037c7.289,29.319 19.604,55.987 35.72,78.522c0.015,0 0.031,0.002 0.046,0.002" style="fill:#96442b;fill-rule:nonzero;"/><rect x="995.594" y="367.643" width="52.942" height="6.933" style="fill:#c7d6ce;fill-rule:nonzero;"/></g><path d="M1200,600l0,-234.128l0,234.128Z" style="fill:#d2e3d8;"/><path d="M840.331,452.544c1.253,-0.178 2.523,-0.272 3.807,-0.272c16.49,0 30.643,14.904 36.746,36.173c4.376,-3.805 9.461,-5.997 14.891,-5.997c5.025,0 9.755,1.875 13.901,5.168c6.826,-25.602 23.575,-43.71 43.169,-43.71c3.263,0 6.447,0.509 9.521,1.464c11.39,-36.616 36.238,-62.023 65.077,-62.023c19.976,0 38.037,12.195 51.042,31.853c8.518,-11.984 19.672,-19.824 32.034,-21.383c-0.329,-4.577 -0.502,-9.224 -0.502,-13.932c0,-71.394 38.796,-129.272 86.653,-129.272l3.33,0.103l0,349.284l-1200,0l0,-96.356c7.596,-5.039 16.001,-7.835 24.84,-7.835c6.141,0 12.072,1.35 17.668,3.861c3.815,-2.483 8.027,-3.861 12.452,-3.861c2.86,0 5.63,0.575 8.262,1.653c10.927,-15.027 25.52,-24.21 41.538,-24.21c14.667,0 28.139,7.699 38.696,20.534c3.902,-2.621 8.23,-4.08 12.784,-4.08c5.093,0 9.903,1.825 14.152,5.06c10.671,-13.422 24.451,-21.514 39.488,-21.514c5.671,0 11.164,1.151 16.378,3.305c4.147,-3.043 8.812,-4.753 13.742,-4.753c3.116,0 6.126,0.683 8.967,1.954c11.144,-17.093 26.723,-27.717 43.953,-27.717c4.85,0 9.569,0.842 14.095,2.433c10.348,-28.719 30.681,-48.263 54.049,-48.263c16.859,0 32.138,10.172 43.228,26.623c4.969,-4.99 10.952,-7.903 17.388,-7.903c3.187,0 6.263,0.714 9.159,2.042c10.667,-26.996 30.358,-45.125 52.865,-45.125c18.28,0 34.702,11.959 45.941,30.914c1.191,-0.153 2.397,-0.231 3.616,-0.231c18.561,0 34.294,18.018 39.792,42.965c12.29,-14.741 27.895,-23.579 44.892,-23.579c29.924,0 55.557,27.349 66.31,66.198c4.597,-1.926 9.438,-2.977 14.447,-2.977c5.41,0 10.629,1.209 15.549,3.443c2.39,-20.829 14.543,-36.686 29.186,-36.686c3.387,0 6.64,0.855 9.67,2.42c6.83,-18.171 24.376,-31.115 44.922,-31.115c18.295,0 34.213,10.264 42.302,25.344Z" style="fill:#86c0d1;"/><path d="M789.53,488.366c7.566,-6.091 17.181,-9.738 27.641,-9.738c17.256,0 32.211,9.924 39.465,24.372c10.921,3.593 19.761,11.766 24.248,22.246c4.376,-2.55 9.461,-4.019 14.891,-4.019c5.025,0 9.755,1.257 13.901,3.463c6.826,-17.156 23.575,-29.29 43.169,-29.29c3.263,0 6.447,0.341 9.521,0.981c6.897,-14.859 18.729,-26.962 33.394,-34.199l0,-87.302l52.8,0l0,83.1c11.466,3.53 21.705,9.858 29.925,18.183c8.518,-8.03 19.672,-13.284 32.034,-14.328c-0.329,-3.067 -0.502,-6.181 -0.502,-9.337c0,-47.841 38.796,-86.626 86.653,-86.626l3.33,0.069l0,234.059l-1200,0l0,-64.569c7.596,-3.377 16.001,-5.25 24.84,-5.25c6.141,0 12.072,0.904 17.668,2.587c3.815,-1.664 8.027,-2.587 12.452,-2.587c2.86,0 5.63,0.385 8.262,1.107c10.927,-10.069 25.52,-16.223 41.538,-16.223c14.667,0 28.139,5.159 38.696,13.76c3.902,-1.757 8.23,-2.734 12.784,-2.734c5.093,0 9.903,1.223 14.152,3.39c10.671,-8.994 24.451,-14.416 39.488,-14.416c5.671,0 11.164,0.771 16.378,2.215c4.147,-2.04 8.812,-3.186 13.742,-3.186c3.116,0 6.126,0.458 8.967,1.31c11.144,-11.454 26.723,-18.574 43.953,-18.574c4.85,0 9.569,0.564 14.095,1.631c10.348,-19.245 30.681,-32.342 54.049,-32.342c16.859,0 32.138,6.817 43.228,17.841c4.969,-3.344 10.952,-5.296 17.388,-5.296c3.187,0 6.263,0.478 9.159,1.368c10.667,-18.09 30.358,-30.239 52.865,-30.239c18.28,0 34.702,8.014 45.941,20.716c1.191,-0.102 2.397,-0.155 3.616,-0.155c18.561,0 34.294,12.075 39.792,28.792c12.29,-9.878 27.895,-15.801 44.892,-15.801c29.924,0 55.557,18.327 66.31,44.36c4.597,-1.29 9.438,-1.995 14.447,-1.995c5.41,0 10.629,0.811 15.549,2.307c2.39,-13.958 14.543,-24.584 29.186,-24.584c0.741,0 1.475,0.028 2.202,0.082c8.096,-9.9 20.404,-16.224 34.177,-16.224c3.337,0 6.588,0.371 9.714,1.075Z" style="fill:#d8dee9;"/><path d="M295.356,283.712c0.432,0 0.784,-0.352 0.784,-0.785l0,-4.761c0,-0.432 -0.352,-0.784 -0.784,-0.784c-0.433,0 -0.785,0.352 -0.785,0.784l0.001,4.762c0,0.432 0.352,0.784 0.784,0.784Z" style="fill:#d2e3d8;fill-rule:nonzero;"/><path d="M299.542,285.134c0.209,0 0.406,-0.082 0.554,-0.23l3.367,-3.367c0.149,-0.148 0.23,-0.344 0.23,-0.554c0,-0.209 -0.081,-0.407 -0.23,-0.555c-0.148,-0.149 -0.345,-0.23 -0.554,-0.23c-0.21,0 -0.407,0.081 -0.555,0.23l-3.367,3.367c-0.148,0.148 -0.23,0.345 -0.23,0.555c0,0.209 0.082,0.406 0.23,0.554c0.148,0.148 0.345,0.23 0.555,0.23Z" style="fill:#d2e3d8;fill-rule:nonzero;"/><path d="M306.257,289.099c0.433,0 0.785,-0.352 0.785,-0.784c0,-0.433 -0.352,-0.785 -0.785,-0.785l-4.761,0c-0.433,0 -0.785,0.352 -0.785,0.785c0,0.433 0.352,0.784 0.785,0.784l4.761,0Z" style="fill:#d2e3d8;fill-rule:nonzero;"/><path d="M303.441,296.652c0.209,0 0.406,-0.082 0.554,-0.23c0.148,-0.148 0.23,-0.346 0.23,-0.555c0,-0.21 -0.082,-0.406 -0.23,-0.554l-3.367,-3.368c-0.148,-0.147 -0.345,-0.23 -0.554,-0.23c-0.21,0 -0.407,0.083 -0.555,0.23c-0.148,0.149 -0.23,0.346 -0.23,0.555c0,0.21 0.082,0.406 0.23,0.555l3.367,3.367c0.148,0.148 0.345,0.23 0.555,0.23Z" style="fill:#d2e3d8;fill-rule:nonzero;"/><path d="M296.109,300c0.433,0 0.784,-0.352 0.784,-0.785l0,-4.76c0,-0.433 -0.352,-0.785 -0.784,-0.785c-0.433,0 -0.785,0.352 -0.785,0.785l0.001,4.76c0,0.433 0.351,0.785 0.784,0.785Z" style="fill:#d2e3d8;fill-rule:nonzero;"/><path d="M288.556,297.184c0.21,0 0.407,-0.081 0.555,-0.23l3.366,-3.367c0.149,-0.148 0.23,-0.345 0.23,-0.555c0,-0.209 -0.081,-0.406 -0.23,-0.554c-0.148,-0.149 -0.345,-0.23 -0.554,-0.23c-0.21,0 -0.407,0.082 -0.555,0.23l-3.366,3.367c-0.149,0.148 -0.23,0.346 -0.23,0.555c0,0.209 0.081,0.406 0.23,0.554c0.148,0.149 0.345,0.23 0.554,0.23Z" style="fill:#d2e3d8;fill-rule:nonzero;"/><path d="M289.969,289.852c0.433,0 0.784,-0.352 0.784,-0.785c0,-0.433 -0.351,-0.784 -0.784,-0.784l-4.762,0c-0.432,0 -0.784,0.352 -0.784,0.785c0,0.432 0.352,0.784 0.784,0.784l4.762,0Z" style="fill:#d2e3d8;fill-rule:nonzero;"/><path d="M291.39,285.666c0.21,0 0.407,-0.082 0.555,-0.23c0.149,-0.148 0.23,-0.345 0.23,-0.554c0,-0.21 -0.081,-0.407 -0.23,-0.555l-3.367,-3.366c-0.148,-0.148 -0.345,-0.23 -0.554,-0.23c-0.21,0 -0.407,0.082 -0.555,0.23c-0.306,0.305 -0.306,0.803 0,1.109l3.367,3.366c0.148,0.148 0.345,0.23 0.554,0.23Z" style="fill:#d2e3d8;fill-rule:nonzero;"/><path d="M184.55,246.217c0.576,0 1.045,-0.468 1.045,-1.045l0,-14.968c0,-0.576 -0.469,-1.045 -1.045,-1.045c-0.576,0 -1.045,0.469 -1.045,1.045l0,14.968c0,0.577 0.469,1.045 1.045,1.045Z" style="fill:#d2e3d8;fill-rule:nonzero;"/><path d="M192.033,238.733c0.576,0 1.045,-0.468 1.045,-1.045c0,-0.576 -0.469,-1.045 -1.045,-1.045l-14.967,0c-0.576,0 -1.044,0.469 -1.044,1.045c0,0.577 0.468,1.045 1.044,1.045l14.967,0Z" style="fill:#d2e3d8;fill-rule:nonzero;"/><path d="M320.573,171.466c0.392,0 0.71,-0.318 0.71,-0.71l0,-10.179c0,-0.392 -0.318,-0.711 -0.71,-0.711c-0.393,0 -0.711,0.319 -0.711,0.711l0,10.179c0,0.392 0.318,0.71 0.711,0.71Z" style="fill:#d2e3d8;fill-rule:nonzero;"/><path d="M325.661,166.377c0.393,0 0.711,-0.319 0.711,-0.711c0,-0.391 -0.318,-0.71 -0.711,-0.71l-10.178,0c-0.392,0 -0.711,0.319 -0.711,0.71c0,0.392 0.319,0.711 0.711,0.711l10.178,0Z" style="fill:#d2e3d8;fill-rule:nonzero;"/><path d="M70.62,300c0.392,0 0.711,-0.319 0.711,-0.71l0,-10.179c0,-0.392 -0.319,-0.711 -0.711,-0.711c-0.391,0 -0.711,0.319 -0.711,0.711l0,10.179c0,0.391 0.32,0.71 0.711,0.71Z" style="fill:#d2e3d8;fill-rule:nonzero;"/><path d="M75.709,294.911c0.392,0 0.711,-0.319 0.711,-0.711c0,-0.392 -0.319,-0.711 -0.711,-0.711l-10.179,0c-0.391,0 -0.71,0.319 -0.71,0.711c0,0.392 0.319,0.711 0.71,0.711l10.179,0Z" style="fill:#d2e3d8;fill-rule:nonzero;"/><path d="M353.482,65.669c0.392,0 0.71,-0.319 0.71,-0.711l0,-10.179c0,-0.392 -0.318,-0.71 -0.71,-0.71c-0.392,0 -0.711,0.318 -0.711,0.71l0,10.179c0,0.392 0.319,0.711 0.711,0.711Z" style="fill:#d2e3d8;fill-rule:nonzero;"/><path d="M358.571,60.58c0.392,0 0.711,-0.319 0.711,-0.711c0,-0.392 -0.319,-0.711 -0.711,-0.711l-10.179,0c-0.391,0 -0.71,0.319 -0.71,0.711c0,0.392 0.319,0.711 0.71,0.711l10.179,0Z" style="fill:#d2e3d8;fill-rule:nonzero;"/><path d="M228.108,63.239c1.097,0 1.989,0.892 1.989,1.989c0,1.097 -0.892,1.989 -1.989,1.989c-1.097,0 -1.99,-0.892 -1.99,-1.989c0,-1.097 0.893,-1.989 1.99,-1.989Zm0,5.179c1.759,0 3.19,-1.431 3.19,-3.19c0,-1.759 -1.431,-3.19 -3.19,-3.19c-1.759,0 -3.19,1.431 -3.19,3.19c0,1.759 1.431,3.19 3.19,3.19Z" style="fill:#d2e3d8;fill-rule:nonzero;"/><path d="M449.601,101.217c1.097,0 1.99,0.893 1.99,1.99c0,1.097 -0.893,1.989 -1.99,1.989c-1.097,0 -1.989,-0.892 -1.989,-1.989c0,-1.097 0.892,-1.99 1.989,-1.99Zm0,5.18c1.759,0 3.19,-1.431 3.19,-3.19c0,-1.759 -1.431,-3.19 -3.19,-3.19c-1.759,0 -3.19,1.431 -3.19,3.19c0,1.759 1.431,3.19 3.19,3.19Z" style="fill:#d2e3d8;fill-rule:nonzero;"/><path d="M94.92,115.672c1.097,0 1.989,0.893 1.989,1.99c0,1.097 -0.892,1.989 -1.989,1.989c-1.098,0 -1.989,-0.892 -1.989,-1.989c0,-1.097 0.891,-1.99 1.989,-1.99Zm0,5.18c1.759,0 3.189,-1.431 3.189,-3.19c0,-1.759 -1.43,-3.19 -3.189,-3.19c-1.76,0 -3.19,1.431 -3.19,3.19c0,1.759 1.43,3.19 3.19,3.19Z" style="fill:#d2e3d8;fill-rule:nonzero;"/><path d="M36.192,198.877c0.531,0 0.962,-0.427 0.962,-0.952c0,-0.53 -0.429,-0.962 -0.957,-0.962c-0.527,0 -0.957,0.43 -0.957,0.957c0,0.528 0.427,0.957 0.952,0.957Zm-3.832,1.574c0.253,0 0.493,-0.097 0.674,-0.273c0.37,-0.377 0.373,-0.989 0.003,-1.36c-0.181,-0.18 -0.422,-0.28 -0.677,-0.28c-0.255,0 -0.496,0.1 -0.676,0.28c-0.371,0.371 -0.373,0.977 -0.006,1.351c0.189,0.183 0.427,0.282 0.682,0.282Zm7.665,0.024c0.254,0 0.495,-0.1 0.676,-0.281c0.372,-0.373 0.373,-0.98 0,-1.353c-0.179,-0.182 -0.418,-0.281 -0.675,-0.281c-0.254,0 -0.496,0.1 -0.677,0.281c-0.182,0.179 -0.282,0.416 -0.283,0.671c-0.001,0.257 0.1,0.499 0.283,0.682c0.181,0.181 0.422,0.281 0.676,0.281Zm-9.267,3.828c0.527,-0.001 0.957,-0.432 0.957,-0.962c0,-0.538 -0.428,-0.976 -0.952,-0.976c-0.524,0 -0.956,0.426 -0.962,0.949c0,0.554 0.42,0.989 0.957,0.989Zm10.842,0.009c0.529,0 0.961,-0.43 0.961,-0.958c0,-0.527 -0.429,-0.956 -0.957,-0.956c-0.528,0 -0.957,0.427 -0.957,0.952c0,0.53 0.427,0.962 0.953,0.962Zm-9.253,3.818c0.255,0 0.495,-0.099 0.675,-0.281c0.371,-0.37 0.372,-0.976 0.002,-1.351c-0.182,-0.179 -0.424,-0.28 -0.679,-0.28c-0.256,0 -0.495,0.099 -0.675,0.279c-0.183,0.183 -0.283,0.425 -0.281,0.682c0.001,0.255 0.101,0.493 0.283,0.672c0.176,0.181 0.413,0.279 0.675,0.279Zm7.664,0.009c0.193,0 0.379,-0.058 0.537,-0.168l0.061,-0.042l0.006,0l0.075,-0.073c0.367,-0.367 0.368,-0.973 -0.001,-1.349c-0.182,-0.181 -0.424,-0.283 -0.679,-0.283c-0.257,0 -0.497,0.101 -0.677,0.283c-0.374,0.368 -0.375,0.972 -0.005,1.349c0.19,0.184 0.427,0.283 0.683,0.283Zm-3.837,1.584c0.528,-0.001 0.957,-0.43 0.957,-0.957c0,-0.528 -0.429,-0.956 -0.956,-0.956c-0.528,0 -0.957,0.429 -0.957,0.957c0,0.527 0.429,0.956 0.956,0.956Z" style="fill:#d2e3d8;fill-rule:nonzero;"/><path d="M421.741,223.861c0.529,0 0.96,-0.427 0.96,-0.952c0,-0.53 -0.429,-0.962 -0.956,-0.962c-0.528,0 -0.957,0.43 -0.957,0.957c0,0.528 0.428,0.957 0.953,0.957Zm-3.833,1.574c0.253,0 0.492,-0.097 0.674,-0.273c0.37,-0.377 0.373,-0.989 0.002,-1.36c-0.18,-0.181 -0.421,-0.28 -0.677,-0.28c-0.255,0 -0.495,0.099 -0.676,0.28c-0.37,0.371 -0.373,0.977 -0.006,1.351c0.189,0.183 0.427,0.282 0.683,0.282Zm7.664,0.024c0.255,0 0.495,-0.1 0.677,-0.281c0.372,-0.373 0.372,-0.98 0,-1.353c-0.179,-0.182 -0.419,-0.281 -0.675,-0.281c-0.255,0 -0.496,0.1 -0.678,0.282c-0.181,0.178 -0.28,0.415 -0.281,0.67c-0.001,0.258 0.099,0.5 0.282,0.683c0.18,0.181 0.42,0.28 0.675,0.28Zm-9.267,3.827c0.527,0 0.957,-0.431 0.957,-0.962c0,-0.538 -0.427,-0.976 -0.952,-0.976c-0.524,0 -0.955,0.427 -0.962,0.95c0,0.553 0.421,0.988 0.957,0.988Zm10.841,0.01c0.531,0 0.962,-0.429 0.962,-0.957c0,-0.528 -0.429,-0.957 -0.957,-0.957c-0.528,0 -0.957,0.427 -0.957,0.952c0,0.53 0.427,0.962 0.952,0.962Zm-9.253,3.818c0.256,0 0.496,-0.1 0.677,-0.281c0.369,-0.37 0.37,-0.976 0.001,-1.351c-0.182,-0.18 -0.425,-0.28 -0.679,-0.28c-0.255,0 -0.495,0.099 -0.674,0.278c-0.184,0.183 -0.284,0.425 -0.283,0.682c0.001,0.255 0.102,0.494 0.284,0.673c0.175,0.181 0.414,0.279 0.674,0.279Zm7.665,0.009c0.193,0 0.379,-0.058 0.537,-0.168l0.061,-0.042l0.006,0l0.075,-0.073c0.367,-0.367 0.368,-0.973 -0.001,-1.348c-0.182,-0.183 -0.424,-0.283 -0.68,-0.283c-0.256,0 -0.496,0.1 -0.675,0.282c-0.375,0.369 -0.376,0.973 -0.006,1.35c0.189,0.183 0.427,0.282 0.683,0.282Zm-3.837,1.584c0.527,0 0.957,-0.429 0.957,-0.957c0,-0.528 -0.43,-0.957 -0.957,-0.957c-0.527,0 -0.957,0.429 -0.957,0.957c0,0.528 0.43,0.957 0.957,0.957Z" style="fill:#d2e3d8;fill-rule:nonzero;"/><path d="M221.711,124.753c0.377,0 0.684,-0.306 0.684,-0.684l0,-3.888c0,-0.377 -0.307,-0.684 -0.684,-0.684c-0.377,0 -0.685,0.307 -0.685,0.684l0,3.888c0,0.378 0.308,0.684 0.685,0.684Z" style="fill:#d2e3d8;fill-rule:nonzero;"/><path d="M225.129,125.915c0.183,0 0.353,-0.071 0.483,-0.2l2.75,-2.75c0.129,-0.129 0.201,-0.301 0.201,-0.484c0,-0.182 -0.072,-0.354 -0.201,-0.483c-0.129,-0.129 -0.3,-0.2 -0.483,-0.2c-0.183,0 -0.355,0.071 -0.483,0.2l-2.75,2.75c-0.267,0.266 -0.267,0.7 0,0.967c0.128,0.129 0.3,0.2 0.483,0.2Z" style="fill:#d2e3d8;fill-rule:nonzero;"/><path d="M230.613,129.154c0.378,0 0.685,-0.307 0.685,-0.684c0,-0.378 -0.307,-0.684 -0.685,-0.684l-3.888,0c-0.377,0 -0.684,0.306 -0.684,0.684c0,0.377 0.307,0.684 0.684,0.684l3.888,0Z" style="fill:#d2e3d8;fill-rule:nonzero;"/><path d="M228.314,135.322c0.181,0 0.354,-0.072 0.483,-0.201c0.129,-0.129 0.2,-0.301 0.2,-0.483c0,-0.183 -0.071,-0.355 -0.2,-0.484l-2.75,-2.75c-0.129,-0.129 -0.301,-0.2 -0.483,-0.2c-0.183,0 -0.355,0.071 -0.485,0.2c-0.265,0.266 -0.265,0.7 0,0.967l2.75,2.75c0.129,0.129 0.302,0.201 0.485,0.201Z" style="fill:#d2e3d8;fill-rule:nonzero;"/><path d="M222.325,138.056c0.377,0 0.684,-0.307 0.684,-0.684l0,-3.888c0,-0.378 -0.307,-0.684 -0.684,-0.684c-0.377,0 -0.684,0.306 -0.684,0.684l0,3.888c0,0.377 0.307,0.684 0.684,0.684Z" style="fill:#d2e3d8;fill-rule:nonzero;"/><path d="M216.157,135.756c0.183,0 0.355,-0.071 0.484,-0.2l2.749,-2.75c0.13,-0.129 0.201,-0.301 0.201,-0.484c0,-0.183 -0.071,-0.354 -0.201,-0.484c-0.129,-0.129 -0.301,-0.2 -0.484,-0.2c-0.182,0 -0.353,0.071 -0.483,0.2l-2.749,2.75c-0.13,0.129 -0.201,0.301 -0.201,0.484c0,0.182 0.071,0.354 0.201,0.484c0.129,0.129 0.301,0.2 0.483,0.2Z" style="fill:#d2e3d8;fill-rule:nonzero;"/><path d="M217.311,129.768c0.377,0 0.684,-0.307 0.684,-0.685c0,-0.377 -0.307,-0.684 -0.684,-0.684l-3.889,0c-0.377,0 -0.684,0.307 -0.684,0.684c0,0.378 0.307,0.685 0.684,0.685l3.889,0Z" style="fill:#d2e3d8;fill-rule:nonzero;"/><path d="M218.472,126.349c0.182,0 0.355,-0.071 0.484,-0.2c0.129,-0.13 0.2,-0.301 0.2,-0.484c0,-0.183 -0.071,-0.354 -0.2,-0.483l-2.749,-2.75c-0.13,-0.129 -0.302,-0.2 -0.484,-0.2c-0.183,0 -0.355,0.071 -0.484,0.2c-0.266,0.267 -0.266,0.701 0,0.967l2.749,2.75c0.13,0.129 0.302,0.2 0.484,0.2Z" style="fill:#d2e3d8;fill-rule:nonzero;"/><path d="M856.79,316.537c0.576,0 1.045,-0.468 1.045,-1.045l0,-14.968c0,-0.576 -0.469,-1.045 -1.045,-1.045c-0.576,0 -1.045,0.469 -1.045,1.045l0,14.968c0,0.577 0.469,1.045 1.045,1.045Z" style="fill:#d2e3d8;fill-rule:nonzero;"/><path d="M864.273,309.053c0.576,0 1.045,-0.468 1.045,-1.045c0,-0.576 -0.469,-1.045 -1.045,-1.045l-14.967,0c-0.576,0 -1.044,0.469 -1.044,1.045c0,0.577 0.468,1.045 1.044,1.045l14.967,0Z" style="fill:#d2e3d8;fill-rule:nonzero;"/><path d="M742.86,370.32c0.392,0 0.711,-0.319 0.711,-0.71l0,-10.179c0,-0.392 -0.319,-0.711 -0.711,-0.711c-0.391,0 -0.711,0.319 -0.711,0.711l0,10.179c0,0.391 0.32,0.71 0.711,0.71Z" style="fill:#d2e3d8;fill-rule:nonzero;"/><path d="M747.949,365.231c0.392,0 0.711,-0.319 0.711,-0.711c0,-0.392 -0.319,-0.711 -0.711,-0.711l-10.179,0c-0.391,0 -0.71,0.319 -0.71,0.711c0,0.392 0.319,0.711 0.71,0.711l10.179,0Z" style="fill:#d2e3d8;fill-rule:nonzero;"/><path d="M900.348,133.559c1.097,0 1.989,0.892 1.989,1.989c0,1.097 -0.892,1.989 -1.989,1.989c-1.097,0 -1.99,-0.892 -1.99,-1.989c0,-1.097 0.893,-1.989 1.99,-1.989Zm0,5.179c1.759,0 3.19,-1.431 3.19,-3.19c0,-1.759 -1.431,-3.19 -3.19,-3.19c-1.759,0 -3.19,1.431 -3.19,3.19c0,1.759 1.431,3.19 3.19,3.19Z" style="fill:#d2e3d8;fill-rule:nonzero;"/><path d="M767.16,185.992c1.097,0 1.989,0.893 1.989,1.99c0,1.097 -0.892,1.989 -1.989,1.989c-1.098,0 -1.989,-0.892 -1.989,-1.989c0,-1.097 0.891,-1.99 1.989,-1.99Zm0,5.18c1.759,0 3.189,-1.431 3.189,-3.19c0,-1.759 -1.43,-3.19 -3.189,-3.19c-1.76,0 -3.19,1.431 -3.19,3.19c0,1.759 1.43,3.19 3.19,3.19Z" style="fill:#d2e3d8;fill-rule:nonzero;"/><path d="M708.432,269.197c0.531,0 0.962,-0.427 0.962,-0.952c0,-0.53 -0.429,-0.962 -0.957,-0.962c-0.527,0 -0.957,0.43 -0.957,0.957c0,0.528 0.427,0.957 0.952,0.957Zm-3.832,1.574c0.253,0 0.493,-0.097 0.674,-0.273c0.37,-0.377 0.373,-0.989 0.003,-1.36c-0.181,-0.18 -0.422,-0.28 -0.677,-0.28c-0.255,0 -0.496,0.1 -0.676,0.28c-0.371,0.371 -0.373,0.977 -0.006,1.351c0.189,0.183 0.427,0.282 0.682,0.282Zm7.665,0.024c0.254,0 0.495,-0.1 0.676,-0.281c0.372,-0.373 0.373,-0.98 0,-1.353c-0.179,-0.182 -0.418,-0.281 -0.675,-0.281c-0.254,0 -0.496,0.1 -0.677,0.281c-0.182,0.179 -0.282,0.416 -0.283,0.671c-0.001,0.257 0.1,0.499 0.283,0.682c0.181,0.181 0.422,0.281 0.676,0.281Zm-9.267,3.828c0.527,-0.001 0.957,-0.432 0.957,-0.962c0,-0.538 -0.428,-0.976 -0.952,-0.976c-0.524,0 -0.956,0.426 -0.962,0.949c0,0.554 0.42,0.989 0.957,0.989Zm10.842,0.009c0.529,0 0.961,-0.43 0.961,-0.958c0,-0.527 -0.429,-0.956 -0.957,-0.956c-0.528,0 -0.957,0.427 -0.957,0.952c0,0.53 0.427,0.962 0.953,0.962Zm-9.253,3.818c0.255,0 0.495,-0.099 0.675,-0.281c0.371,-0.37 0.372,-0.976 0.002,-1.351c-0.182,-0.179 -0.424,-0.28 -0.679,-0.28c-0.256,0 -0.495,0.099 -0.675,0.279c-0.183,0.183 -0.283,0.425 -0.281,0.682c0.001,0.255 0.101,0.493 0.283,0.672c0.176,0.181 0.413,0.279 0.675,0.279Zm7.664,0.009c0.193,0 0.379,-0.058 0.537,-0.168l0.061,-0.042l0.006,0l0.075,-0.073c0.367,-0.367 0.368,-0.973 -0.001,-1.349c-0.182,-0.181 -0.424,-0.283 -0.679,-0.283c-0.257,0 -0.497,0.101 -0.677,0.283c-0.374,0.368 -0.375,0.972 -0.005,1.349c0.19,0.184 0.427,0.283 0.683,0.283Zm-3.837,1.584c0.528,-0.001 0.957,-0.43 0.957,-0.957c0,-0.528 -0.429,-0.956 -0.956,-0.956c-0.528,0 -0.957,0.429 -0.957,0.957c0,0.527 0.429,0.956 0.956,0.956Z" style="fill:#d2e3d8;fill-rule:nonzero;"/><path d="M893.951,195.073c0.377,0 0.684,-0.306 0.684,-0.684l0,-3.888c0,-0.377 -0.307,-0.684 -0.684,-0.684c-0.377,0 -0.685,0.307 -0.685,0.684l0,3.888c0,0.378 0.308,0.684 0.685,0.684Z" style="fill:#d2e3d8;fill-rule:nonzero;"/><path d="M897.369,196.235c0.183,0 0.353,-0.071 0.483,-0.2l2.75,-2.75c0.129,-0.129 0.201,-0.301 0.201,-0.484c0,-0.182 -0.072,-0.354 -0.201,-0.483c-0.129,-0.129 -0.3,-0.2 -0.483,-0.2c-0.183,0 -0.355,0.071 -0.483,0.2l-2.75,2.75c-0.267,0.266 -0.267,0.7 0,0.967c0.128,0.129 0.3,0.2 0.483,0.2Z" style="fill:#d2e3d8;fill-rule:nonzero;"/><path d="M902.853,199.474c0.378,0 0.685,-0.307 0.685,-0.684c0,-0.378 -0.307,-0.684 -0.685,-0.684l-3.888,0c-0.377,0 -0.684,0.306 -0.684,0.684c0,0.377 0.307,0.684 0.684,0.684l3.888,0Z" style="fill:#d2e3d8;fill-rule:nonzero;"/><path d="M900.554,205.642c0.181,0 0.354,-0.072 0.483,-0.201c0.129,-0.129 0.2,-0.301 0.2,-0.483c0,-0.183 -0.071,-0.355 -0.2,-0.484l-2.75,-2.75c-0.129,-0.129 -0.301,-0.2 -0.483,-0.2c-0.183,0 -0.355,0.071 -0.485,0.2c-0.265,0.266 -0.265,0.7 0,0.967l2.75,2.75c0.129,0.129 0.302,0.201 0.485,0.201Z" style="fill:#d2e3d8;fill-rule:nonzero;"/><path d="M894.565,208.376c0.377,0 0.684,-0.307 0.684,-0.684l0,-3.888c0,-0.378 -0.307,-0.684 -0.684,-0.684c-0.377,0 -0.684,0.306 -0.684,0.684l0,3.888c0,0.377 0.307,0.684 0.684,0.684Z" style="fill:#d2e3d8;fill-rule:nonzero;"/><path d="M888.397,206.076c0.183,0 0.355,-0.071 0.484,-0.2l2.749,-2.75c0.13,-0.129 0.201,-0.301 0.201,-0.484c0,-0.183 -0.071,-0.354 -0.201,-0.484c-0.129,-0.129 -0.301,-0.2 -0.484,-0.2c-0.182,0 -0.353,0.071 -0.483,0.2l-2.749,2.75c-0.13,0.129 -0.201,0.301 -0.201,0.484c0,0.182 0.071,0.354 0.201,0.484c0.129,0.129 0.301,0.2 0.483,0.2Z" style="fill:#d2e3d8;fill-rule:nonzero;"/><path d="M889.551,200.088c0.377,0 0.684,-0.307 0.684,-0.685c0,-0.377 -0.307,-0.684 -0.684,-0.684l-3.889,0c-0.377,0 -0.684,0.307 -0.684,0.684c0,0.378 0.307,0.685 0.684,0.685l3.889,0Z" style="fill:#d2e3d8;fill-rule:nonzero;"/><path d="M890.712,196.669c0.182,0 0.355,-0.071 0.484,-0.2c0.129,-0.13 0.2,-0.301 0.2,-0.484c0,-0.183 -0.071,-0.354 -0.2,-0.483l-2.749,-2.75c-0.13,-0.129 -0.302,-0.2 -0.484,-0.2c-0.183,0 -0.355,0.071 -0.484,0.2c-0.266,0.267 -0.266,0.701 0,0.967l2.749,2.75c0.13,0.129 0.302,0.2 0.484,0.2Z" style="fill:#d2e3d8;fill-rule:nonzero;"/></g></g></g></svg>